<svg width="140" height="149" viewBox="0 0 140 149" fill="none" xmlns="http://www.w3.org/2000/svg">
<g filter="url(#filter0_d)">
<path d="M101.6 144.684C92.2497 140.45 84.9663 132.106 74.3054 130.881C71.362 130.541 69.1887 131.082 66.3122 131.202C65.11 131.253 63.3365 130.63 62.0581 130.586C60.3514 130.533 60.0257 131.405 58.1108 130.896C49.5809 128.634 44.6414 120.939 40.8588 114.377C37.732 108.953 35.3811 103.081 29.1741 100.644C27.3032 99.9114 25.4994 100.057 23.1173 98.6352C21.4612 97.642 19.7596 96.7201 18.1073 95.7321C14.7648 93.734 11.6167 94.4224 8.76408 92.404C7.10305 91.23 5.01312 87.2331 3.9248 85.5029C2.21401 82.7851 2.05957 81.0972 2.12317 78.0716C2.23712 72.834 0.873852 64.2999 5.0846 60.5179C9.45513 56.5917 17.5409 57.0656 21.288 52.3942C23.306 49.8742 26.5896 45.1556 27.4551 42.0688C28.1046 39.7547 27.6387 36.5071 28.0425 34.2072C29.137 27.9183 31.1428 20.0073 38.0163 17.2409C43.8947 14.8739 50.5214 16.8647 55.8011 13.9685C60.8603 11.1931 63.3504 5.44946 68.1904 2.45458C72.3286 -0.109616 75.0777 1.33871 80.2869 2.11629C85.0215 2.82531 85.1086 3.21103 88.7624 6.60284C91.5757 9.22102 93.6816 10.3188 95.9684 13.2087C98.3862 16.2668 99.1037 18.137 100.725 21.4311C104.606 29.3224 112.67 27.305 118.601 32.1699C120.278 33.5459 120.969 35.3412 122.664 36.704C124.119 37.8708 126.538 38.2201 127.85 39.526C129.666 41.3384 130.011 44.4297 130.778 46.7378C132.758 52.7043 133.871 58.5821 133.336 64.3897C132.879 69.3653 131.486 74.7249 132.342 80.1385C132.889 83.6169 135.892 85.3229 137.19 88.2749C138.358 90.9316 138.212 93.3047 137.079 96.0758C133.107 105.784 128.684 111.541 132.501 122.825C135.025 130.279 136.02 138.869 127.99 142.433C121.979 145.1 108.078 147.619 101.6 144.684Z" fill="#E8EFFA"/>
</g>
<defs>
<filter id="filter0_d" x="0" y="0" width="140" height="149" filterUnits="userSpaceOnUse" color-interpolation-filters="sRGB">
<feFlood flood-opacity="0" result="BackgroundImageFix"/>
<feColorMatrix in="SourceAlpha" type="matrix" values="0 0 0 0 0 0 0 0 0 0 0 0 0 0 0 0 0 0 127 0"/>
<feOffset dy="1"/>
<feGaussianBlur stdDeviation="1"/>
<feColorMatrix type="matrix" values="0 0 0 0 0 0 0 0 0 0 0 0 0 0 0 0 0 0 0.25 0"/>
<feBlend mode="normal" in2="BackgroundImageFix" result="effect1_dropShadow"/>
<feBlend mode="normal" in="SourceGraphic" in2="effect1_dropShadow" result="shape"/>
</filter>
</defs>
</svg>
