<svg width="101" height="108" viewBox="0 0 101 108" fill="none" xmlns="http://www.w3.org/2000/svg">
<g filter="url(#filter0_d)">
<path d="M73.0382 104.056C66.3693 101.019 61.1745 95.0348 53.5708 94.1562C51.4714 93.9124 49.9214 94.3005 47.8697 94.3866C47.0122 94.4229 45.7474 93.9763 44.8356 93.9446C43.6182 93.9065 43.386 94.5318 42.0202 94.1665C35.9364 92.5441 32.4134 87.0253 29.7155 82.3188C27.4853 78.4282 25.8086 74.2171 21.3816 72.4689C20.0471 71.9434 18.7606 72.0476 17.0616 71.028C15.8804 70.3156 14.6668 69.6544 13.4883 68.9458C11.1043 67.5127 8.859 68.0064 6.82438 66.5587C5.63968 65.7167 4.14907 62.85 3.37283 61.609C2.15264 59.6596 2.04249 58.449 2.08785 56.279C2.16912 52.5223 1.19679 46.4013 4.20004 43.6887C7.31726 40.8727 13.0843 41.2125 15.7569 37.862C17.1962 36.0546 19.5382 32.6702 20.1555 30.4563C20.6187 28.7965 20.2864 26.4671 20.5745 24.8176C21.3551 20.3069 22.7857 14.6328 27.6881 12.6487C31.8808 10.951 36.6072 12.3788 40.3728 10.3016C43.9813 8.31093 45.7573 4.19134 49.2093 2.04329C52.1608 0.204138 54.1216 1.24293 57.837 1.80065C61.2138 2.30919 61.276 2.58584 63.882 5.01859C65.8886 6.89646 67.3906 7.68382 69.0216 9.75661C70.746 11.95 71.2578 13.2914 72.4139 15.6541C75.1822 21.314 80.9337 19.867 85.1638 23.3563C86.36 24.3433 86.8526 25.6309 88.0617 26.6084C89.0995 27.4453 90.8252 27.6958 91.761 28.6324C93.056 29.9324 93.3019 32.1495 93.849 33.805C95.2609 38.0845 96.0553 42.3003 95.6733 46.4657C95.3472 50.0345 94.3542 53.8786 94.9648 57.7614C95.3545 60.2562 97.4967 61.4798 98.4224 63.5972C99.2551 65.5027 99.1513 67.2048 98.3432 69.1923C95.5099 76.1551 92.3554 80.2847 95.078 88.3782C96.8779 93.7245 97.5875 99.8854 91.8606 102.442C87.5732 104.354 77.6585 106.162 73.0382 104.056Z" fill="#0B0B0B"/>
</g>
<defs>
<filter id="filter0_d" x="0" y="0" width="101" height="108" filterUnits="userSpaceOnUse" color-interpolation-filters="sRGB">
<feFlood flood-opacity="0" result="BackgroundImageFix"/>
<feColorMatrix in="SourceAlpha" type="matrix" values="0 0 0 0 0 0 0 0 0 0 0 0 0 0 0 0 0 0 127 0" result="hardAlpha"/>
<feOffset dy="1"/>
<feGaussianBlur stdDeviation="1"/>
<feColorMatrix type="matrix" values="0 0 0 0 0 0 0 0 0 0 0 0 0 0 0 0 0 0 0.25 0"/>
<feBlend mode="normal" in2="BackgroundImageFix" result="effect1_dropShadow"/>
<feBlend mode="normal" in="SourceGraphic" in2="effect1_dropShadow" result="shape"/>
</filter>
</defs>
</svg>
