<svg width="463" height="123" viewBox="0 0 463 123" fill="none" xmlns="http://www.w3.org/2000/svg">
<g clip-path="url(#clip0)" filter="url(#filter0_dd)">
<path d="M11.158 60.3623C8.69712 61.6358 6.55649 62.7057 4.83724 65.134C4.02818 66.2887 4.26415 67.4774 4.26415 68.8528C4.28101 69.4472 4.31472 70.0924 4.28101 70.7038C4.23044 71.6547 3.7922 72.2491 3.62365 73.166C3.13484 76.0019 4.61812 77.4623 5.37661 79.9585C6.16881 82.5906 5.25862 84.883 3.52252 86.7679C3.35396 86.9547 3.16855 87.1415 3 87.2943V100.625C4.36529 99.4698 5.66315 98.2641 6.69133 96.7528C8.00605 94.817 9.28706 94.3415 10.7366 92.7283C11.2423 92.1679 11.5962 91.5736 11.8322 90.9453V67.0528C11.8322 64.6075 11.9502 62.1283 12.3379 59.717C11.9502 59.9377 11.5625 60.1585 11.158 60.3623ZM3 113.751H11.8322V109.998C8.81511 109.981 5.86542 109.862 3 109.642V113.751ZM154.311 3C124.14 3 110.773 23.1906 104.739 33.8377C100.643 14.9377 87.496 3 59.9038 3C56.4653 3 53.2459 3.2717 50.2288 3.76415C51.7289 5.00377 53.2628 6.3283 54.8303 7.70377C54.6955 7.8566 54.5438 8.00943 54.4089 8.16226C53.1111 9.45283 52.4537 10.6075 51.6615 12.1528C51.2233 12.9679 50.1951 14.1226 50.1951 15.1075C50.2119 16.0245 50.8693 17.1113 50.9704 18.0962C51.5435 18.1642 52.1334 18.1472 52.7065 18.317C53.3302 18.4868 53.9201 19.2679 54.5438 19.3358C55.5045 19.4377 57.1732 18.4189 58.1002 18.0453C58.9936 17.6547 59.7858 17.2642 60.6791 16.9585C61.5556 16.6528 62.4658 16.5 63.3086 16.1604C68.6686 22.8679 71.6183 30.4075 73.6409 37.6585C93.21 40.3755 97.407 48.6283 97.407 61.4151V113.751H106.239V67.0528C106.239 52.2962 110.554 36.6566 151.075 36.6566C185.358 36.6566 191.831 45.5547 191.831 61.4151V113.751H200.663V48.3736C200.663 21.2377 188.595 3 154.311 3Z" fill="black"/>
<path d="M304.713 14.8817C303.701 16.6647 302.387 18.3968 301.274 20.044C299.117 23.2534 293.521 25.9194 289.812 25.6647C286.374 25.427 283.407 24.0176 279.716 24.493C278.199 24.6798 276.682 25.1723 275.283 25.8855C273.8 26.6327 273.008 28.0761 271.71 28.7893C270.311 29.5534 268.12 28.9421 266.586 29.2647C264.951 29.6213 264.209 30.3345 262.102 29.893C259.422 29.3327 255.832 27.7704 253.169 26.4628C250.152 24.9685 246.14 24.4081 242.803 23.4232C238.842 22.2515 235.926 20.0949 233.482 17.4459C219.677 27.8044 212.531 44.31 212.531 62.8874C212.531 94.3704 232.791 119.995 270.951 119.995C277.002 119.995 282.598 119.35 287.722 118.161C288.97 117.872 290.183 117.55 291.38 117.193C307.291 112.438 318.315 102.012 324.231 88.5459C324.872 87.1025 325.445 85.6421 325.95 84.1308C328.226 77.5591 329.355 70.393 329.355 62.8874C329.355 42.6798 320.978 24.9176 304.713 14.8817ZM221.363 62.8874C221.363 47.2477 233.869 37.2628 270.951 37.2628C308.016 37.2628 320.523 47.2477 320.523 62.8874C320.523 78.7308 308.016 88.9364 270.951 88.9364C233.869 88.9364 221.363 78.7308 221.363 62.8874Z" fill="black"/>
<path d="M304.712 14.8817C303.7 16.6647 302.386 18.3968 301.273 20.044C299.116 23.2534 293.52 25.9194 289.811 25.6647C286.373 25.427 283.406 24.0176 279.715 24.493C278.198 24.6798 276.681 25.1723 275.282 25.8855C273.799 26.6326 273.007 28.076 271.709 28.7893C270.31 29.5534 268.119 28.9421 266.585 29.2647C264.95 29.6213 264.208 30.3345 262.101 29.893C259.421 29.3326 255.831 27.7704 253.168 26.4628C250.151 24.9685 246.139 24.4081 242.802 23.4232C238.841 22.2515 235.925 20.0949 233.481 17.4459C242.92 10.3987 255.46 6.20435 270.95 6.20435C284.519 6.20435 295.795 9.37982 304.712 14.8817Z" fill="#F8F5F5"/>
<path d="M343.243 66.1189C343.412 69.9567 343.884 73.7095 344.659 77.3095C345.097 75.951 345.367 74.4906 345.434 72.8604C345.535 70.4491 344.828 67.868 343.243 66.1189ZM442.993 102.849C439.858 105.006 433.74 103.647 430.369 102.306C428.767 101.66 426.357 99.8095 425.851 98.0944C425.312 96.2944 425.716 94.0699 424.823 92.3887C424.014 90.8604 422.733 89.1453 421.233 87.7189C415.637 88.517 409.114 88.9416 401.58 88.9416C397.315 88.9416 393.371 88.8057 389.747 88.551C389.815 88.7208 389.899 88.8736 389.983 89.0434C391.753 92.4736 395.63 93.5434 397.871 96.8548C400.467 100.726 399.136 105.923 397.838 109.896C397.366 111.34 396.169 113.055 395.815 114.583C395.731 114.974 395.663 115.415 395.63 115.891C394.197 115.891 392.747 115.874 391.281 115.84C390.287 115.806 389.309 115.772 388.348 115.721C382.044 115.364 376.398 114.447 371.392 113.242C379.701 117.555 389.781 120 401.58 120C424.587 120 441.004 110.779 450.443 96.617C447.881 98.485 445.606 101.049 442.993 102.849ZM427.52 10.9133C427.503 10.9133 427.503 10.8963 427.486 10.8963C426.88 10.6416 426.239 10.4038 425.615 10.1661C425.582 10.1491 425.548 10.1491 425.514 10.1321C418.553 7.58496 410.564 6.1925 401.58 6.1925C399.709 6.1925 397.888 6.26043 396.102 6.3793C396.439 6.63401 396.776 6.90571 397.079 7.16043C400.147 9.74156 404.344 10.6925 408.086 11.7623C409.738 12.2378 411.491 13.0189 413.193 13.4095C413.496 13.4774 413.817 13.5284 414.12 13.5793C415.721 13.8001 417.558 13.4095 419.109 13.7661C420.34 14.0548 421.267 15.0057 422.447 15.3963C423.475 15.7529 424.621 15.6001 425.615 16.0076C426.492 16.3642 427.149 17.1114 427.908 17.6887C429.071 18.5717 430.487 19.0642 431.869 19.5397C436.099 21.017 440.347 22.4774 444.594 23.9378C444.021 24.4302 444.46 25.3812 444.999 25.9246C445.555 26.451 446.246 27.0623 446.095 27.8095C446.027 28.1491 445.774 28.4378 445.538 28.6925C444.527 29.7793 443.145 30.9001 442.403 32.1906C441.813 33.2095 441.662 34.4321 440.954 35.468C439.673 37.3699 438.392 39.2548 437.111 41.1567C436.993 41.3265 436.875 41.4963 436.723 41.6151C435.139 42.8887 428.852 37.4548 427.149 36.7585C426.93 36.6736 426.711 36.5887 426.593 36.385C426.526 36.2661 426.509 36.1302 426.475 35.9944C426.34 35.0435 426.205 34.0925 426.07 33.1416C425.11 32.9717 424.166 32.6321 423.306 32.1397C422.43 31.6472 421.638 31.0189 420.761 30.5434C416.665 28.4038 411.356 31.0699 407.648 32.9548C404.226 34.7038 401.36 34.4831 397.383 34.585C388.314 34.8227 382.162 32.0038 376.246 27.0963C374.206 25.3982 371.223 24.0227 371.189 21.6284C371.173 19.6755 372.909 17.6038 374.19 15.9227C375.235 14.5642 375.943 14.5982 377.224 13.6302C378.437 12.7133 379.347 11.8133 379.819 10.1661C379.904 9.87741 379.971 9.60571 380.038 9.351C373.532 11.4057 367.869 14.4623 363.048 18.2661C363.031 18.2831 363.031 18.2831 363.015 18.3001C362.812 18.5548 362.61 18.8095 362.408 19.0812C360.688 21.5095 360.25 24.5321 359.677 27.385C359.289 29.3887 356.963 33.4982 358.126 35.3321C358.278 35.5868 358.497 35.8076 358.615 36.0963C358.868 36.6906 358.582 37.3699 358.261 37.9133C357.722 38.8642 357.031 39.7302 356.222 40.4604C354.789 38.8812 354.317 38.3038 352.261 38.2359C350.862 38.2019 349.463 38.1001 348.064 37.9812C347.069 40.2567 346.243 42.6001 345.569 45.0284C348.216 46.285 350.626 48.4246 352.8 50.4963C353.39 51.0567 353.98 51.634 354.57 52.2114C359.846 42.8548 373.836 37.251 401.58 37.251C430.925 37.251 444.864 43.517 449.398 53.8755C449.381 51.3963 450.039 48.2038 451.876 46.4208C452.668 45.6567 455.331 44.7906 456.376 44.2642C456.663 44.1284 456.95 43.9925 457.253 43.8567C452.786 29.1001 442.791 17.1453 427.52 10.9133Z" fill="black"/>
<path d="M363.014 18.3C362.811 18.5548 362.609 18.8095 362.407 19.0812C360.688 21.5095 360.249 24.5321 359.676 27.385C359.289 29.3887 356.963 33.4982 358.126 35.3321C358.277 35.5868 358.496 35.8076 358.614 36.0963C358.867 36.6906 358.581 37.3699 358.26 37.9132C357.721 38.8642 357.03 39.7302 356.221 40.4604C354.788 38.8812 354.316 38.3038 352.26 38.2359C350.861 38.2019 349.462 38.1 348.063 37.9812C351.383 30.2717 356.39 23.5472 363.014 18.3Z" fill="#F8F5F5"/>
<path d="M460 62.8754C460 75.4924 456.78 87.1585 450.443 96.6169C447.881 98.4849 445.605 101.049 442.993 102.849C439.858 105.006 433.739 103.647 430.368 102.306C428.767 101.66 426.356 99.8094 425.851 98.0943C425.311 96.2943 425.716 94.0698 424.823 92.3886C424.014 90.8603 422.733 89.1452 421.232 87.7188C443.212 84.5603 451.151 75.5094 451.151 62.8754C451.151 59.6151 450.611 56.6094 449.398 53.8754C449.381 51.3962 450.038 48.2037 451.875 46.4207C452.668 45.6566 455.331 44.7905 456.376 44.2641C456.662 44.1283 456.949 43.9924 457.252 43.8566C459.09 49.8 460 56.2018 460 62.8754Z" fill="#F8F5F5"/>
<path d="M446.094 27.8095C446.026 28.1491 445.774 28.4378 445.538 28.6925C444.526 29.7793 443.144 30.9 442.403 32.1906C441.813 33.2095 441.661 34.4321 440.953 35.468C439.672 37.3698 438.391 39.2547 437.11 41.1566C436.992 41.3264 436.874 41.4963 436.722 41.6151C435.138 42.8887 428.851 37.4547 427.148 36.7585C426.929 36.6736 426.71 36.5887 426.592 36.3849C426.525 36.2661 426.508 36.1302 426.474 35.9944C426.339 35.0434 426.205 34.0925 426.07 33.1415C425.109 32.9717 424.165 32.6321 423.305 32.1397C422.429 31.6472 421.637 31.0189 420.76 30.5434C416.664 28.4038 411.355 31.0698 407.647 32.9547C404.225 34.7038 401.36 34.483 397.382 34.5849C388.314 34.8227 382.161 32.0038 376.245 27.0963C374.206 25.3981 371.222 24.0227 371.189 21.6283C371.172 19.6755 372.908 17.6038 374.189 15.9227C375.234 14.5642 375.942 14.5981 377.223 13.6302C378.436 12.7132 379.347 11.8132 379.819 10.1661C379.903 9.87739 379.97 9.60569 380.038 9.35097C384.926 7.77173 390.286 6.76984 396.101 6.37927C396.438 6.63399 396.775 6.90569 397.078 7.1604C400.146 9.74154 404.343 10.6925 408.085 11.7623C409.737 12.2378 411.49 13.0189 413.192 13.4095C413.496 13.4774 413.816 13.5283 414.119 13.5793C415.721 13.8 417.558 13.4095 419.108 13.7661C420.339 14.0547 421.266 15.0057 422.446 15.3963C423.474 15.7529 424.62 15.6 425.615 16.0076C426.491 16.3642 427.148 17.1113 427.907 17.6887C429.07 18.5717 430.486 19.0642 431.868 19.5397C436.099 21.017 440.346 22.4774 444.594 23.9378C444.021 24.4302 444.459 25.3812 444.998 25.9246C445.555 26.451 446.246 27.0623 446.094 27.8095Z" fill="#F8F5F5"/>
<path d="M397.837 109.896C397.365 111.34 396.168 113.055 395.814 114.583C395.73 114.974 395.662 115.415 395.629 115.891C394.196 115.891 392.746 115.874 391.28 115.84C390.286 115.806 389.308 115.772 388.347 115.721C382.043 115.364 376.397 114.447 371.391 113.242C357.081 105.804 348.046 92.8302 344.658 77.3095C345.096 75.951 345.366 74.4906 345.433 72.8604C345.535 70.4491 344.827 67.8679 343.242 66.1189C343.175 65.0491 343.158 63.9623 343.158 62.8755C343.158 56.6434 343.967 50.6491 345.568 45.0283C348.215 46.2849 350.625 48.4245 352.799 50.4962C353.389 51.0566 353.979 51.634 354.569 52.2113C352.782 55.3698 351.99 58.9359 351.99 62.8755C351.99 76.9189 361.783 86.5132 389.746 88.551C389.814 88.7208 389.898 88.8736 389.982 89.0434C391.752 92.4736 395.629 93.5434 397.871 96.8547C400.466 100.726 399.135 105.923 397.837 109.896Z" fill="#F8F5F5"/>
<path d="M73.6409 37.6585C68.9383 36.9962 63.3254 36.6566 56.6675 36.6566C22.8725 36.6566 14.2594 47.5415 12.3379 59.717C11.9502 59.9378 11.5625 60.1585 11.158 60.3623C8.69712 61.6359 6.55649 62.7057 4.83724 65.134C4.02818 66.2887 4.26415 67.4774 4.26415 68.8528C4.28101 69.4472 4.31472 70.0925 4.28101 70.7038C4.23044 71.6547 3.7922 72.2491 3.62365 73.166C3.13484 76.0019 4.61812 77.4623 5.37661 79.9585C6.16881 82.5906 5.25862 84.883 3.52252 86.7679C3.35396 86.9547 3.16855 87.1415 3 87.2944V6.03963H10.113V34.2623H10.7535C15.7258 25.0076 26.4795 7.55095 50.2288 3.76416C51.7289 5.00378 53.2628 6.32831 54.8303 7.70378C54.6955 7.85661 54.5438 8.00944 54.4089 8.16227C53.1111 9.45284 52.4537 10.6076 51.6615 12.1528C51.2233 12.9679 50.1951 14.1227 50.1951 15.1076C50.2119 16.0245 50.8693 17.1113 50.9704 18.0962C51.5435 18.1642 52.1334 18.1472 52.7065 18.317C53.3302 18.4868 53.9201 19.2679 54.5438 19.3359C55.5045 19.4377 57.1732 18.4189 58.1002 18.0453C58.9936 17.6547 59.7858 17.2642 60.6791 16.9585C61.5556 16.6528 62.4658 16.5 63.3086 16.1604C68.6686 22.8679 71.6183 30.4076 73.6409 37.6585Z" fill="#F8F5F5"/>
<path d="M11.8322 90.9453V109.998C8.81511 109.981 5.86542 109.862 3 109.642V100.625C4.36529 99.4698 5.66315 98.2642 6.69133 96.7529C8.00605 94.817 9.28706 94.3415 10.7366 92.7283C11.2423 92.168 11.5962 91.5736 11.8322 90.9453Z" fill="#F8F5F5"/>
<path d="M324.232 88.5459C318.315 102.012 307.292 112.438 291.381 117.193C290.184 117.55 288.97 117.872 287.723 118.161C287.706 117.974 287.672 117.787 287.622 117.618C286.796 115.138 283.02 114.221 285.144 110.825C287.302 107.378 291.532 108.312 294.651 107.531C295.156 107.395 295.628 107.123 296.066 106.818C299.454 104.423 299.791 100.178 303.382 97.9194C305.421 96.6459 317.726 91.3987 319.934 89.5308C320.591 88.9534 320.17 88.8855 321.113 88.5798C321.855 88.3251 323.102 88.5628 323.878 88.5628C323.996 88.5628 324.114 88.5628 324.232 88.5459Z" fill="#F8F5F5"/>
</g>
<defs>
<filter id="filter0_dd" x="0" y="0" width="463" height="123" filterUnits="userSpaceOnUse" color-interpolation-filters="sRGB">
<feFlood flood-opacity="0" result="BackgroundImageFix"/>
<feColorMatrix in="SourceAlpha" type="matrix" values="0 0 0 0 0 0 0 0 0 0 0 0 0 0 0 0 0 0 127 0"/>
<feOffset dx="1" dy="1"/>
<feGaussianBlur stdDeviation="1"/>
<feColorMatrix type="matrix" values="0 0 0 0 0 0 0 0 0 0 0 0 0 0 0 0 0 0 0.23 0"/>
<feBlend mode="normal" in2="BackgroundImageFix" result="effect1_dropShadow"/>
<feColorMatrix in="SourceAlpha" type="matrix" values="0 0 0 0 0 0 0 0 0 0 0 0 0 0 0 0 0 0 127 0"/>
<feOffset dx="-1" dy="-1"/>
<feGaussianBlur stdDeviation="1"/>
<feColorMatrix type="matrix" values="0 0 0 0 0 0 0 0 0 0 0 0 0 0 0 0 0 0 0.11 0"/>
<feBlend mode="normal" in2="effect1_dropShadow" result="effect2_dropShadow"/>
<feBlend mode="normal" in="SourceGraphic" in2="effect2_dropShadow" result="shape"/>
</filter>
<clipPath id="clip0">
<rect width="457" height="117" fill="white" transform="translate(3 3)"/>
</clipPath>
</defs>
</svg>
