<svg width="413" height="1082" viewBox="0 0 413 1082" fill="none" xmlns="http://www.w3.org/2000/svg">
<path d="M63.8069 474.203C72.0841 474.297 79.0764 464.775 87.3477 469.025C91.9787 471.402 96.5564 475.199 99.382 481.831C100.469 484.379 101.258 487.175 102.302 489.808C103.528 492.902 103.697 494.601 104.236 498.148C104.828 502.051 104.961 505.136 104.999 509.32C105.03 512.886 104.114 515.458 103.998 518.897C103.878 522.552 102.935 531.706 101.695 532.942L100.822 534.025C99.2149 539.121 93.1542 548.564 92.0083 550.428C88.0648 556.853 89.7238 566.086 87.5843 573.562C86.8184 576.24 86.4487 577.042 84.6212 578.387C83.6734 579.085 82.1992 580.427 81.2441 580.798C78.6077 581.823 76.1044 583.185 73.6662 584.388C70.9752 585.711 67.8583 586.57 65.0076 585.582C64.3466 585.351 63.7833 584.506 62.8503 584.304C62.1894 584.352 61.5284 584.359 60.866 584.342C59.5589 584.357 58.2504 584.357 56.9418 584.342C54.9768 584.323 53.853 584.809 52.0388 585.584C50.3916 586.284 48.7829 585.594 47.1357 586.294C44.2761 587.509 41.421 586.939 38.5273 587.892C37.4553 588.243 35.5731 589.525 34.3621 590.334C33.3005 591.046 32.4799 591.672 31.47 592.374C29.3822 593.823 26.0169 595.336 23.5964 595.553C21.9759 595.695 20.3213 595.474 18.6964 595.512C17.1882 595.546 16.6529 594.733 15.5307 594.273C12.7598 593.13 9.9268 592.728 7.63793 589.525C4.75171 585.49 0.29965 579.414 0.0113235 573.211C-0.146887 569.782 1.39085 566.854 2.26322 563.993C2.58704 562.939 2.93451 561.974 3.24206 560.795C3.49785 559.813 3.71374 558.064 3.95327 557.161C5.37864 551.805 4.96167 545.796 4.96167 539.653C4.96167 528.366 2.97147 511.375 9.07808 503.34C15.1019 495.409 21.0769 489.204 24.8473 477.755C26.3348 473.238 27.1717 467.899 30.222 465.832C33.6199 463.531 37.6831 464.86 41.2539 466.537C44.9962 468.296 48.1885 473.946 52.0417 474.244C55.9393 474.547 59.899 474.16 63.8069 474.203Z" fill="#231F20"/>
<path d="M338.46 246.614C340.611 249.464 345.516 249.763 348.066 251.815C350.326 253.625 352.297 257.781 353.958 260.724C357.277 266.611 360.85 277.537 360.772 285.672C360.678 295.219 356.776 307.565 354.828 317.246C353.495 323.87 351.783 329.785 352.336 336.231C352.745 340.962 352.634 348.457 353.576 352.628C355.368 360.54 357.64 368.658 359.692 376.517C362.168 386.006 366.01 394.079 367.872 403.972C369.366 411.908 372.915 419.007 372.359 427.147C370.978 447.296 363.383 465.637 351.302 477.26C347.69 480.741 343.726 482.889 339.739 484.725C336.543 486.205 333.1 485.982 329.58 487.493C322.993 490.321 316.129 493.488 309.536 496.604C296.81 502.623 287.419 519.729 281.244 536.22C278.888 542.513 277.46 547.646 276.105 554.669C274.921 560.782 286.627 561.577 283.287 566.325C278.931 572.518 291.321 574.557 294.932 587.029C300.219 593.703 309.386 602.585 301.968 607.826C295.004 609.485 288.739 600.064 255.407 593.357C246.895 591.645 245.49 604.622 219.215 600.866C208.431 598.696 202.665 581.725 188.935 590.082C183.069 592.531 178.358 591.172 172.45 597.132C165.784 603.845 164.238 613.028 162.118 623.576C161.165 628.314 159.146 634.448 159.366 639.099C159.488 641.695 160.265 643.714 161.277 645.516C160.094 651.915 161.215 658.931 161.5 665.545C161.5 665.773 161.096 666.489 161 666.545C155.924 669.312 152.523 671.947 147.852 676.423C143.711 680.393 139.616 682.33 135.419 685.677C132.185 688.26 130.39 691.344 126.564 691.69C118.233 692.447 112.334 687.14 107.758 678.647C103.842 671.377 101.681 662.653 101.116 653.104C100.814 647.963 100.777 641.671 101.201 636.357C101.707 629.994 104.567 626.227 106.354 620.701C108.259 614.821 108.256 607.868 110.005 601.886C111.484 596.83 113.389 594.575 114.47 588.931C116.366 579.03 117.598 567.955 121.991 559.24C123.693 555.87 124.016 553.563 125 549.545C125.528 547.369 124.663 545.045 125 543.045C125.337 541.045 125.163 539.043 125.5 536.545C126.122 532.545 126.607 528.566 126.204 523.82C125.824 519.377 126.417 515.447 126.122 511.184C125.905 508.045 125.036 506.179 125 503.545C124.963 500.895 125.169 499.733 125.273 497.102C125.351 495.024 124.73 493.758 125.047 490.944C125.337 488.385 126.19 485.41 126.716 482.864C128.996 471.836 129.502 462.637 126.849 452.824C125.95 449.48 123.61 447.36 123.635 443.43C123.652 441.189 124.705 438.179 124.857 435.801C124.974 434.004 124.352 432.176 124.641 429.633C125.925 418.287 129.473 408.085 133.166 398.5C133.942 396.487 134.938 395.697 135.756 392.912C136.479 390.436 136.829 387.377 137.341 384.816C138.409 379.468 139.481 374.112 140.569 368.772C141.834 362.57 143.133 357.982 142.045 352.381C141.281 348.459 140.173 344.784 139.411 340.62C138.096 333.437 139.488 319.399 144.009 313.051C149.035 305.991 156.258 299.062 162.31 294.448C168.306 289.882 174.417 289.651 180.69 287.008C187.978 283.943 194.501 283.657 201.634 280.176C206.511 277.788 213.193 275.89 217.818 272.369C223.421 268.106 229.463 264.274 235.007 259.063C241.523 252.932 242.5 248.445 248.5 243.045C253.5 238.545 265.5 233.62 269 230.545C274 224.62 279.028 221.765 300.5 224.045C321.972 226.325 292.508 201.986 304.069 210.433C315.63 218.879 329.257 222.131 329.257 222.131C334.451 224.196 332.461 232.071 333.508 234.971C334.719 238.31 336.512 244.045 338.46 246.614Z" fill="#231F20"/>
<path d="M235.364 1032.42C223.783 1027.13 214.762 1016.72 201.557 1015.19C197.911 1014.76 195.22 1015.44 191.657 1015.59C190.168 1015.65 187.971 1014.87 186.388 1014.82C184.274 1014.75 183.87 1015.84 181.499 1015.2C170.933 1012.38 164.815 1002.77 160.13 994.583C156.257 987.811 153.346 980.482 145.658 977.439C143.34 976.524 141.106 976.705 138.156 974.931C136.105 973.691 133.997 972.54 131.95 971.307C127.81 968.812 123.911 969.672 120.378 967.152C118.321 965.686 115.732 960.697 114.384 958.537C112.265 955.144 112.074 953.037 112.153 949.26C112.294 942.721 110.605 932.067 115.821 927.346C121.234 922.445 131.249 923.036 135.89 917.205C138.389 914.059 142.457 908.168 143.529 904.315C144.333 901.426 143.756 897.371 144.256 894.5C145.612 886.649 148.096 876.773 156.61 873.32C163.89 870.365 172.098 872.85 178.638 869.235C184.904 865.77 187.988 858.6 193.983 854.861C199.109 851.66 202.514 853.468 208.966 854.439C214.83 855.324 214.938 855.805 219.463 860.04C222.948 863.308 225.556 864.679 228.389 868.286C231.383 872.104 232.272 874.439 234.28 878.551C239.087 888.402 249.075 885.884 256.421 891.957C258.498 893.675 259.354 895.916 261.453 897.617C263.256 899.074 266.253 899.51 267.878 901.14C270.126 903.403 270.554 907.262 271.504 910.143C273.955 917.592 275.335 924.929 274.672 932.18C274.105 938.391 272.381 945.082 273.441 951.84C274.118 956.182 277.838 958.312 279.446 961.997C280.892 965.314 280.712 968.276 279.308 971.736C274.388 983.855 268.91 991.042 273.638 1005.13C276.764 1014.43 277.996 1025.16 268.051 1029.61C260.605 1032.94 243.388 1036.08 235.364 1032.42Z" fill="#231F20"/>
<path d="M214.533 653.922C211.742 654.282 208.865 653.056 206.184 654.543C205.443 654.953 205.007 655.492 204.346 656.028C204.07 656.252 203.565 656.374 203.258 656.584C202.849 656.864 202.894 657.181 202.372 657.362C200.048 658.169 197.408 656.407 195.604 655.104C194.113 654.027 193 654.045 191.5 653.81C190.628 653.81 190.398 653.817 189.639 653.807C189.111 653.798 188.582 653.818 188.055 653.81C186.99 653.794 186.344 654.547 185.392 654.44C184.837 654.378 183.788 653.547 183.291 653.22C182.51 652.705 182.239 652.228 181.833 651.313C181.13 649.728 179.621 647.416 180.086 645.554C180.569 643.621 180.685 641.882 180.918 639.836C181.042 638.732 181.449 637.169 181.224 636.096C181.054 635.292 181.449 634.361 181.224 633.604C180.606 631.535 180.584 628.922 181.818 626.901C182.873 625.172 184.711 624.615 185.551 622.832C186.356 621.124 186.143 618.975 186.866 617.239C187.484 615.753 188.333 615.708 189.668 615.035C190.882 614.424 190.956 614.524 192.289 614.902C193.316 615.195 193.965 615.157 194.905 615.623C195.901 616.117 198.435 614.333 199.276 615.035C202.03 614.596 200.801 616.931 202.875 617.354C203.462 617.474 203.874 617.89 204.463 618.002C204.968 618.098 205.587 617.782 206.078 617.944C206.757 618.17 207.269 619.033 207.771 619.589C209.068 621.028 210.148 622.59 210.83 624.418C211.415 625.984 212.089 627.15 213.044 628.618C213.657 629.562 214.347 630.228 215.063 630.884C215.708 631.475 216.004 632.209 216.123 633.234C216.539 636.824 216.298 639.313 218.768 642.021C220.4 643.809 221.83 646.202 220.435 648.663C219.391 650.504 216.468 653.673 214.533 653.922Z" fill="#231F20"/>
<path d="M227.284 1043.7C225.253 1042.9 222.319 1040.96 219.497 1042.21L212.674 1043.18C211.7 1043.18 210.724 1045.13 209.749 1047.08C208.37 1049.84 207.8 1050 207.8 1052.93C207.8 1054.88 209.426 1055.92 210.734 1057.37C212.043 1058.81 217.933 1065.32 220.755 1064.08C223.577 1062.84 225.812 1059.5 226.535 1058.84C227.113 1058.32 228.402 1053.64 228.975 1051.37C230.557 1047.31 229.902 1046.59 227.284 1043.7Z" fill="black"/>
<path d="M191.946 1039.03C191.926 1040.24 193.142 1040.74 194.146 1041.75L195.362 1042.25C195.632 1042.36 196.374 1042.78 197.176 1043.6C198.18 1044.62 197.987 1043.93 198.798 1044.26C199.609 1044.59 200.227 1044.23 200.653 1043.18C201.079 1042.14 202.995 1037.43 201.992 1036.41C200.988 1035.4 199.154 1035.26 198.748 1035.09C198.424 1034.96 196.153 1035.66 195.059 1036.03C193.011 1036.41 192.798 1036.94 191.946 1039.03Z" fill="black"/>
<path d="M212.891 1067.93C212.877 1066.59 211.1 1065.56 209.613 1064.02L207.836 1062.99C207.442 1062.76 206.354 1061.99 205.165 1060.76C203.677 1059.23 203.98 1060.07 202.796 1059.38C201.611 1058.69 200.73 1058.84 200.152 1059.83C199.574 1060.82 196.972 1065.28 198.459 1066.81C199.947 1068.35 202.604 1069.23 203.197 1069.58C203.67 1069.86 206.928 1069.99 208.498 1070.02C211.445 1070.41 211.734 1069.91 212.891 1067.93Z" fill="black"/>
<path d="M256.106 41.2781C255.047 44.4575 258.226 47.637 260.346 51.8762L260.345 56.4736C261.052 57.1801 262.186 60.0822 263.882 63.4736C266.001 67.7129 268.261 69.354 270.381 71.4736C272.501 73.5932 281.762 70.5932 283.881 68.4736C286.001 66.354 290.02 53.9959 287.901 49.7566C285.781 45.5173 280.482 42.3379 279.422 41.278C278.574 40.4302 273.914 34.1801 270.381 33.4736C264.023 31.353 260.347 37.0379 256.106 41.2781Z" fill="black"/>
<path d="M263.51 6.61831C263.565 7.72061 264.863 8.24901 265.972 9.2405L267.27 9.7689C267.558 9.88633 268.357 10.3195 269.244 11.1127C270.353 12.1041 270.109 11.4649 270.974 11.8172C271.84 12.1695 272.461 11.8825 272.838 10.9564C273.215 10.0302 275.609 4.45338 274.5 3.4619C273.391 2.47041 270.775 3.63803 270.342 3.4619C269.996 3.32099 267.677 3.81611 266.56 4.08128C264.453 4.3025 264.264 4.76558 263.51 6.61831Z" fill="black"/>
<path d="M139.243 1020.87C141.3 1022.98 142.296 1024.44 145.739 1024.45L150.437 1029.07C151.855 1031.39 156.044 1030.89 159.739 1027.13C162.153 1024.67 162.495 1022.45 163.88 1021.04C165.355 1019.54 162.129 1015.49 161.038 1012.96C159.947 1010.43 155.038 999.055 151.595 999.04C148.152 999.026 144.834 1001.96 143.868 1002.37C143.095 1002.71 140.493 1007.83 139.288 1010.35C136.515 1014.54 137.06 1015.81 139.243 1020.87Z" fill="black"/>
<path d="M288.491 850.834C284.514 852.959 278.623 856.552 273.265 854.173C267.663 851.69 264.878 844.146 261.485 839.123C258.395 834.543 254.691 831.363 250.703 827.886C244.766 822.71 238 833.045 228.5 827.045C224.782 827.041 220 815.545 217 812.545C214 809.545 205.1 805.518 202 803.045C196.5 800.045 189.352 803.374 188.318 795.054C187.321 787.011 188.47 778.839 187.127 770.889C186.438 766.863 185.07 761.531 183.011 757.58C181.802 755.252 179.304 753.397 178.228 751.026C177.213 748.79 178.21 747.837 177.202 745.595C176.164 743.267 173.695 741.216 172.434 738.959C170.883 736.186 171.286 735.62 170.407 733.246C168.314 727.572 167.615 724.25 167.832 718.784C168.133 711.086 172.891 704.898 179.159 701.981C182.768 700.301 185.554 700.958 189.044 698.454C192.899 695.688 196.862 693.061 200.765 690.365C207.694 685.576 214.045 680.593 222.034 678.192C225.889 677.034 227.403 675.096 232.136 677.498C235.164 679.03 240.543 682.087 243.126 684.449C249.682 690.449 255.416 700.652 257.324 708.66C257.949 711.27 260.255 717.366 260.186 719.694C260.021 725.339 255.888 729.997 252.115 732.454C248.149 735.033 243.986 736.111 246.657 742.633C248.267 746.559 250.877 753.829 254.159 757.067C257.031 759.902 261.811 762.539 265.194 764.709C268.677 766.937 272.468 769.989 276.099 771.719C279.859 773.512 283.855 773.747 287.181 776.838C291.252 780.623 294.591 786.639 297.797 791.387C304.229 800.899 318.035 800.817 322.788 813.077C324.995 818.774 322.065 820.774 320.379 824.19C319.249 826.496 318.209 827.775 316.96 829.876C315.98 831.518 314.757 834.088 313.62 835.595C310.402 839.826 303.813 838.756 299.71 841.766C295.791 844.645 292.842 848.51 288.491 850.834Z" fill="#231F20"/>
<path d="M291 57.0452H306H317.5C325.667 96.0452 341.3 178.245 338.5 195.045C335 216.045 306 206.045 306 195.045C306 184.045 278 206.045 228.5 206.045H213.5L204 200.545L199 199.045L194 195.045L192.501 187.045C192.5 183.545 189.476 176.363 194.5 170.545C198.362 166.073 210.893 162.956 213.5 157.045C221 140.045 217 128.045 226 117.545C236.5 111.545 274 85.5452 291 76.0452C304.6 68.4452 296.667 60.2119 291 57.0452Z" fill="#231F20"/>
<path d="M248.219 1054.73C248.128 1060.13 253.551 1062.33 258.025 1066.87L263.448 1069.08C264.653 1069.57 267.958 1071.46 271.537 1075.09C276.011 1079.63 275.153 1076.57 278.768 1078.04C282.383 1079.51 285.14 1077.91 287.039 1073.25C288.938 1068.59 297.482 1047.61 293.008 1043.07C288.534 1038.53 280.354 1037.91 278.546 1037.18C277.1 1036.59 266.976 1039.71 262.095 1041.35C252.967 1043.07 252.017 1045.4 248.219 1054.73Z" fill="black"/>
<path d="M50.2422 447.805C50.1996 450.332 50.646 451.648 52.7401 453.773L55.2785 454.807C55.8426 455.037 57.3897 455.921 59.0649 457.621C61.159 459.746 62.3477 457.62 64.485 455.943C65.9223 454.815 65.6308 454.056 66.5196 451.874C67.4083 449.691 68.6155 445.861 66.5214 443.736C64.4273 441.611 63.1919 440.218 62.3458 439.873C61.6688 439.598 58.634 442.97 56.3492 443.736C52.0763 444.539 52.02 443.438 50.2422 447.805Z" fill="black"/>
<path d="M72.314 442.105C72.812 442.542 73.2771 443.009 73.9844 442.963L74.5345 442.645C74.6567 442.574 74.8344 442.142 75.4002 442.105C76.1076 442.058 75.9752 442.174 76.3419 441.961C76.7085 441.749 76.7346 441.371 76.42 440.828C76.1053 440.284 76.1076 438.971 75.4002 439.018C74.6929 439.064 72.8877 438.42 72.3133 439.018C71.9562 439.389 72.0182 439.988 71.8613 440.563C71.4424 441.531 71.6847 441.017 72.314 442.105Z" fill="black"/>
<path d="M64.766 422.534C64.7234 425.062 67.2618 426.095 69.3559 428.22L71.8943 429.254C72.4584 429.483 74.0054 430.368 75.6807 432.068C77.7748 434.193 77.373 432.757 79.0653 433.446C80.7576 434.135 82.0481 433.388 82.9368 431.206C83.8255 429.023 87.8248 419.201 85.7307 417.076C83.6366 414.952 79.8077 414.665 78.9615 414.32C78.2846 414.045 73.5458 415.508 71.2611 416.274C66.9881 417.077 66.5438 418.168 64.766 422.534Z" fill="black"/>
</svg>
