<svg width="385" height="1090" viewBox="0 0 385 1090" fill="none" xmlns="http://www.w3.org/2000/svg">
<path d="M23.9411 350.432C26.8155 352.36 25.1837 351.026 26.0372 354.392C27.0579 358.439 27.686 362.199 28.2459 366.356C28.6214 369.149 30.0108 369.701 30.6868 372.143C31.2057 374.02 30.2396 376.315 30.5161 378.234C30.9462 381.173 31.984 384.829 33.2813 387.646C36.0499 393.69 46.0728 401.664 53.2077 401.98C58.6596 402.216 61.3667 399.903 66.8117 399.966C71.335 400.022 75.8583 399.897 80.3816 399.954C85.1576 400.01 87.3014 398.441 91.6609 397.933C96.0033 397.435 100.909 397.981 105.302 397.981C110.43 397.981 116.206 397.298 121.156 398.423C125.922 399.506 129.544 400.246 134.743 400.001C142.793 399.628 149.556 396.504 155.745 392.582C167.017 385.435 174.931 373.599 188.589 369.773C192.474 368.69 196.079 366.735 200.364 366.258C202.559 366.016 204.36 365.451 206.5 364.997C208.555 364.561 209.571 364.655 211.622 364.219C215.763 363.351 218.774 363.142 223 362.351C224.529 362.068 227.647 362.551 229.804 362.303C231.941 362.059 234.478 362.351 236.649 362.351C246.778 362.351 255.203 364.309 263.758 368.785C271.443 372.802 274.501 377.971 284.207 378.18C299.938 378.511 314.812 369.925 323.268 358.445C326.316 354.308 329.252 351.572 334.089 348.996C338.251 346.776 340.193 347.218 344.836 346.063C348.004 345.272 351.302 342.404 354.402 341.013C358.249 339.291 361.734 339.303 365.787 338.202C371.553 336.632 372.768 330.825 375.342 326.67C377.428 323.301 379.995 320.636 381.064 316.813C382.122 313.029 381.156 309.143 382.077 305.38C382.385 304.118 383.576 302.814 383.88 301.035C384.221 299.053 383.771 297.337 383.334 295.484C382.979 293.989 381.743 290.999 381.128 289.098C380.534 287.25 378.718 284.734 377.612 283.063C375.68 280.13 374.543 277.724 373.075 274.758C371.361 271.317 370.788 268.986 369.754 265.342C368.784 261.919 367.053 258.019 366.217 255.01C362.328 241.014 355.627 230.53 340.811 223.776C332.717 220.088 326.139 216.501 316.068 218.769C314.579 219.252 313.074 219.667 311.425 219.864C298.217 221.437 275.938 211.72 269.462 201.579C263.806 192.724 265.854 191.801 269.462 182.982C269.63 182.571 270.967 180.288 269.854 175.636C268.502 174.651 267.599 172.705 266.134 171.813C257.897 166.791 249.191 162.048 244.013 154.534C239.94 148.622 238.346 141.743 234.997 136.126C231.996 131.092 226.476 125.556 220.276 123.303C210.622 119.79 203.262 120.829 193.611 122.864C184.687 124.75 177.607 128.051 169.26 131.217C161.627 134.106 153.721 132.28 146.05 130.343C141.328 129.152 136.348 126.01 131.964 125.234C127.735 124.485 123.276 124.822 118.879 124.795C116.879 124.783 113.892 124.288 111.97 124.693C109.915 125.126 109.723 126.442 107.675 126.875C103.787 127.696 98.0242 126.83 93.9789 126.78C85.6457 126.678 77.2034 131.34 71.2634 136.616C69.3619 138.305 68.6279 139.367 66.8049 140.678C65.6169 141.531 64.2002 141.994 62.8961 143.059C59.455 145.864 57.0209 150.156 53.2623 152.657C45.1784 158.043 32.4244 152.875 23.7704 152.463C15.4543 152.063 7.78691 152.803 0 154.274V338.787C5.34945 342.24 11.0573 345.973 16.8677 348.486C18.7179 349.289 22.3571 349.369 23.9411 350.432Z" fill="#231F20"/>
<path d="M196.822 421.655C186.811 421.769 178.353 410.213 168.349 415.37C162.748 418.256 157.211 422.865 153.794 430.914C152.479 434.007 151.524 437.4 150.262 440.595C148.779 444.351 148.575 446.413 147.923 450.718C147.207 455.455 147.046 459.2 147 464.279C146.962 468.607 148.071 471.729 148.211 475.903C148.356 480.339 146.644 495.926 151.741 495.281L152.052 494.264C152.36 500.395 161.326 511.911 162.712 514.174C167.482 521.972 165.475 533.178 168.063 542.253C168.99 545.503 169.437 546.476 171.647 548.108C172.793 548.955 174.576 550.585 175.732 551.035C178.92 552.279 181.948 553.932 184.897 555.392C188.152 556.999 191.922 558.041 195.37 556.841C196.169 556.561 196.85 555.535 197.979 555.29C198.778 555.349 199.578 555.357 200.379 555.337C201.96 555.354 203.542 555.354 205.125 555.337C207.502 555.313 208.861 555.903 211.055 556.844C213.047 557.694 214.993 556.856 216.985 557.705C220.444 559.18 223.897 558.488 227.397 559.645C228.694 560.071 230.97 561.628 232.435 562.609C233.719 563.474 234.712 564.233 235.933 565.086C238.458 566.844 242.528 568.681 245.456 568.944C247.416 569.116 249.417 568.847 251.383 568.894C253.207 568.935 253.854 567.948 255.212 567.39C258.563 566.003 261.989 565.515 264.758 561.628C268.249 556.73 273.633 549.355 273.982 541.826C274.173 537.664 272.314 534.11 271.258 530.637C270.867 529.358 270.446 528.187 270.075 526.756C269.765 525.564 269.504 523.441 269.214 522.346C267.49 515.845 267.995 508.552 267.995 501.096C267.995 487.395 270.402 466.773 263.016 457.021C255.73 447.395 248.503 439.862 243.943 425.966C242.144 420.484 241.132 414.003 237.442 411.495C233.333 408.703 228.418 410.315 224.099 412.35C219.573 414.485 215.712 421.343 211.052 421.705C206.338 422.073 201.548 421.603 196.822 421.655Z" fill="#231F20"/>
<path d="M282.526 1050.62C285.197 1048.26 290.064 1048.93 292.969 1047.42C295.541 1046.09 298.294 1042.41 300.502 1039.85C304.917 1034.73 310.575 1024.73 312.103 1016.73C313.895 1007.36 312.504 994.484 312.504 984.609C312.504 977.852 311.993 971.716 313.806 965.505C315.141 960.948 316.51 953.578 318.256 949.675C321.573 942.272 325.402 934.762 328.964 927.462C333.263 918.648 338.622 911.492 342.399 902.16C345.429 894.674 350.309 888.415 351.369 880.325C353.989 860.3 350.161 840.821 340.61 827.043C337.756 822.918 334.293 820.031 330.747 817.444C327.906 815.363 324.487 814.902 321.334 812.727C315.434 808.655 309.33 804.197 303.481 799.841C292.192 791.43 286.359 772.808 283.559 755.423C282.491 748.789 282.103 743.475 282.16 736.323C282.205 730.096 284.5 728.182 288 723.497C293.5 718.182 296 716.497 307 708.312C313.5 702.812 324.239 695.913 318 689.312C311.5 686.312 303.5 694.312 269.5 694.312C260.817 694.312 262 681.312 235.5 679.812C224.5 679.812 215.5 695.312 203.687 684.411C198.42 680.853 193.534 681.256 188.917 674.248C183.706 666.351 184.002 657.044 184.005 646.285C184.005 641.452 183.235 635.041 184.368 630.525C185 628.004 186.16 626.177 187.508 624.61C187.61 618.104 188.415 618.425 190 611.997C189.917 611.927 190.5 608.826 190.5 604.497C188.264 595.826 184.139 596.972 180.443 591.663C177.166 586.954 173.534 584.247 170.079 580.139C167.419 576.968 166.267 573.591 162.584 572.497C154.567 570.112 147.736 574.15 141.575 581.574C136.302 587.928 132.463 596.055 130.025 605.305C128.715 610.286 127.437 616.447 126.805 621.74C126.046 628.078 128.107 632.334 128.769 638.105C129.477 644.245 128.102 651.06 128.637 657.27C129.089 662.518 130.512 665.105 130.459 670.851C130.364 680.931 129.388 692.032 131.976 701.442C132.979 705.082 134.064 707.805 134.236 711.938C134.325 714.175 133.943 724.655 131.761 725.082C131.04 725.226 130.58 724.79 130.378 723.758C130.534 729.286 130.45 732.424 129.119 736.997C127.87 741.279 127.677 745.248 126.547 749.369C125.976 751.466 124.23 752.782 123.676 755.357C123.117 757.948 123.353 760.407 122.936 763.007C122.603 765.059 121.744 766.178 121.5 768.999C121.279 771.566 121.529 774.65 121.543 777.249C121.602 788.51 120.284 797.628 115.748 806.726C114.206 809.827 111.494 811.443 110.744 815.301C110.319 817.502 110.757 820.66 110.437 823.021C110.197 824.806 109.226 826.476 109.008 829.026C108.029 840.402 109.495 851.103 111.225 861.229C111.588 863.355 112.409 864.326 112.662 867.217C112.882 869.788 112.621 872.856 112.619 875.468C112.611 880.921 112.605 886.383 112.619 891.833C112.635 898.162 113.004 902.917 110.832 908.193C109.31 911.887 107.499 915.271 105.931 919.203C103.224 925.985 101.82 940.022 105 947.138C108.535 955.051 114.249 963.268 119.272 968.985C124.249 974.644 130.195 976.075 135.823 979.904C142.363 984.346 148.702 985.913 155.008 990.733C159.318 994.036 165.495 997.215 169.334 1001.58C173.986 1006.86 179.154 1011.81 183.561 1018.01C188.74 1025.31 189.326 1031.37 189.361 1041.9C189.385 1048.94 187.771 1054.31 187.534 1060.99C187.456 1063.25 193.674 1072.81 215.174 1074.81C236.674 1076.81 228.674 1085.31 241.674 1079.31C254.674 1073.31 268.674 1072.81 268.674 1072.81C274.174 1071.81 273.776 1063.7 275.375 1061.06C277.22 1058.03 280.11 1052.76 282.526 1050.62Z" fill="#231F20"/>
<path d="M133.929 76.8196C140.806 77.5238 147.892 75.1275 154.498 78.0325C156.322 78.8336 157.397 79.8873 159.025 80.934C159.705 81.3718 160.947 81.6106 161.704 82.0189C162.713 82.5674 162.603 83.1868 163.888 83.5397C169.613 85.116 175.117 82.3026 179.562 79.7575C183.236 77.6536 186.613 75.0254 191.05 75.7105C192.387 75.9182 193.383 76.6154 195.253 76.5947C196.554 76.5774 197.858 76.6172 199.155 76.6016C201.779 76.5705 203.37 78.0411 205.717 77.8318C207.083 77.7107 209.666 76.0877 210.891 75.4475C212.816 74.4423 213.484 73.5097 214.485 71.7224C216.214 68.6271 219.932 64.1095 218.786 60.4726C217.596 56.6973 212.743 54.2282 212.171 50.2297C211.864 48.0739 211.577 44.2051 212.133 42.1098C212.55 40.5388 213.934 38.8017 214.489 37.3224C216.01 33.2806 217.559 27.9827 214.52 24.0343C211.921 20.657 207.394 19.5687 205.324 16.0858C203.34 12.7482 203.865 8.55068 202.084 5.15947C200.563 2.25791 198.471 2.16967 195.182 0.854707C192.192 -0.339138 192.009 -0.143624 188.726 0.595175C186.196 1.16788 184.598 1.09348 182.28 2.00357C179.829 2.96729 178.771 3.8151 176.701 5.18715C171.744 8.47455 167.757 4.55909 162.648 5.3844C161.203 5.61798 160.187 6.43118 158.736 6.65091C157.491 6.83778 155.968 6.22009 154.759 6.53672C153.084 6.97792 151.824 8.66488 150.587 9.75145C147.393 12.5613 144.731 15.6134 143.051 19.1846C141.61 22.2436 140.579 25.8441 138.226 28.7128C136.717 30.5572 134.389 30.533 132.624 31.8151C131.035 32.9691 130.306 34.4035 130.013 36.4053C128.989 43.4196 129.581 48.2815 123.496 53.5708C119.476 57.0641 115.954 61.7391 119.39 66.5456C121.963 70.1427 129.164 76.3334 133.929 76.8196Z" fill="#231F20"/>
<path d="M289.567 470.101C294.129 470.679 298.83 468.711 303.212 471.097C304.422 471.755 305.135 472.621 306.215 473.481C306.666 473.84 306.998 474.162 307.5 474.497C308.169 474.948 311.255 475.365 312.5 475.497C314.68 475.727 317.552 474.088 320.5 471.997C322.937 470.269 324.057 470.369 327 470.932C327.887 471.103 329.007 469.933 330.247 469.916C331.111 469.902 331.975 469.935 332.836 469.922C334.577 469.896 335.5 469.916 337 469.997C338.5 469.997 339.809 469.5 340.621 468.974C341.898 468.148 342.341 467.382 343.005 465.914C344.153 463.371 345 460.321 345 456.997C345 453.673 344.88 450.782 344.5 447.497C344.297 445.726 343.631 443.218 344 441.497C344.277 440.207 343.632 438.712 344 437.497C345.009 434.177 345.044 429.985 343.028 426.742C341.304 423.967 338.301 423.073 336.928 420.212C335.612 417.471 335.96 414.023 334.779 411.237C333.77 408.854 332.382 408.781 330.2 407.701C328.217 406.72 328.096 406.881 325.918 407.488C324.24 407.958 323.179 407.897 321.642 408.645C320.016 409.436 318 409.293 315 409.997C312.87 410.497 312.007 410.744 308.618 411.422C307.66 411.614 306.962 411.241 306 411.422C305.175 411.575 304.187 412.108 303.385 412.368C302.274 412.731 301.438 414.117 300.618 415.009C298.499 417.317 296.733 419.824 295.618 422.758C294.662 425.271 293.561 427.141 292 429.497C290.999 431.012 289.872 432.08 288.701 433.133C287.648 434.081 287.164 435.259 286.969 436.903C286.29 442.665 286.683 446.659 282.647 451.004C279.98 453.873 277.643 457.713 279.922 461.661C281.629 464.616 286.406 469.701 289.567 470.101Z" fill="#231F20"/>
<path d="M264.135 666.235C268.112 668.359 274.003 671.952 279.361 669.573C284.963 667.09 287.748 659.546 291.141 654.523C294.231 649.943 297.935 646.763 301.923 643.286C307.86 638.11 317.704 635.259 324.185 635.24C327.902 635.236 330.649 638.288 334.077 639.103C337.285 639.863 343.309 637.066 346.409 634.594C352.954 629.38 363.274 618.774 364.308 610.455C365.305 602.411 364.156 594.24 365.499 586.289C366.188 582.263 367.556 576.932 369.615 572.98C370.824 570.653 373.322 568.797 374.397 566.426C375.413 564.19 374.415 563.237 375.424 560.996C376.462 558.667 378.931 556.616 380.192 554.36C381.743 551.586 381.339 551.02 382.219 548.646C384.312 542.973 385.011 539.65 384.794 534.184C384.493 526.486 379.735 520.299 373.467 517.381C369.858 515.701 367.072 516.359 363.581 513.854C359.727 511.088 355.764 508.462 351.861 505.765C344.932 500.977 338.581 495.994 330.592 493.592C326.737 492.434 325.223 490.496 320.49 492.898C317.462 494.431 312.083 497.487 309.499 499.849C302.944 505.849 297.21 516.053 295.302 524.061C294.677 526.67 292.371 532.766 292.44 535.094C292.605 540.739 296.737 545.397 300.511 547.854C304.477 550.433 308.64 551.512 305.969 558.033C304.359 561.959 301.749 569.229 298.467 572.468C295.595 575.302 290.815 577.939 287.432 580.109C283.949 582.337 280.158 585.389 276.527 587.119C272.767 588.912 268.77 589.147 265.445 592.238C261.374 596.024 258.035 602.039 254.828 606.787C248.397 616.299 234.591 616.217 229.838 628.477C227.631 634.174 230.561 636.174 232.247 639.59C233.376 641.896 234.417 643.175 235.666 645.276C236.646 646.918 237.869 649.488 239.006 650.995C242.224 655.227 248.812 654.156 252.916 657.167C256.835 660.045 259.784 663.911 264.135 666.235Z" fill="#231F20"/>
<path d="M316.086 652.478C314.867 654.285 312.328 656.719 312.916 659.745L312.362 666.616C312.147 667.565 313.834 668.947 315.52 670.328C317.905 672.281 317.943 672.874 320.796 673.519C322.697 673.949 324.076 672.594 325.774 671.636C327.472 670.678 335.113 666.368 334.526 663.342C333.938 660.316 331.173 657.398 330.694 656.549C330.311 655.87 326.035 653.581 323.945 652.522C320.332 650.083 319.483 650.562 316.086 652.478Z" fill="black"/>
<path d="M332.374 740.36C332.366 740.838 332.846 741.033 333.242 741.435L333.722 741.631C333.829 741.674 334.122 741.842 334.439 742.163C334.835 742.565 334.759 742.294 335.079 742.424C335.399 742.554 335.643 742.413 335.811 742C335.98 741.587 336.736 739.729 336.34 739.327C335.944 738.925 335.219 738.871 335.059 738.806C334.931 738.754 334.035 739.03 333.602 739.175C332.794 739.327 332.71 739.534 332.374 740.36Z" fill="black"/>
<path d="M175.374 1087.36C175.366 1087.84 175.846 1088.03 176.242 1088.44L176.722 1088.63C176.829 1088.67 177.122 1088.84 177.439 1089.16C177.835 1089.57 177.759 1089.29 178.079 1089.42C178.399 1089.55 178.643 1089.41 178.811 1089C178.98 1088.59 179.736 1086.73 179.34 1086.33C178.944 1085.93 178.219 1085.87 178.059 1085.81C177.931 1085.75 177.035 1086.03 176.602 1086.18C175.794 1086.33 175.71 1086.53 175.374 1087.36Z" fill="black"/>
<path d="M336.153 713.736C334.846 713.455 333.443 714.959 331.621 716.072L330.218 717.576C329.906 717.91 328.918 718.802 327.46 719.692C325.638 720.805 326.525 720.695 325.59 721.697C324.654 722.7 324.606 723.593 325.445 724.375C326.284 725.158 330.06 728.679 331.882 727.566C333.705 726.453 335.156 724.057 335.623 723.555C335.997 723.154 336.843 720.005 337.219 718.48C338.251 715.692 337.831 715.301 336.153 713.736Z" fill="black"/>
<path d="M326.83 776.931C329.344 775.391 330.99 774.742 331.763 771.387L337.304 767.822C339.877 766.95 340.311 762.754 337.46 758.321C335.597 755.425 333.5 754.6 332.43 752.938C331.292 751.169 326.635 753.424 323.928 753.93C321.221 754.437 309.04 756.715 308.267 760.071C307.493 763.426 309.621 767.309 309.814 768.343C309.969 769.17 314.391 772.837 316.582 774.568C320.062 778.198 321.415 777.944 326.83 776.931Z" fill="black"/>
<path d="M154.205 1037.3C153.173 1039.54 152.312 1040.71 153.481 1043.81L151.292 1048.9C149.872 1050.6 151.721 1054.28 156.08 1056.91C158.928 1058.63 160.877 1058.53 162.512 1059.52C164.252 1060.57 166.473 1056.91 168.179 1055.46C169.885 1054.01 174 1051.11 174 1045.5C174 1042.18 172.5 1038.5 171.002 1038.04C170.206 1037.79 165.357 1036.01 162.872 1035.39C158.471 1033.67 157.618 1034.4 154.205 1037.3Z" fill="black"/>
<path d="M372.129 483.439C372.032 481.246 370.01 480.663 368.276 479.08L366.254 478.496C365.805 478.367 364.559 477.791 363.172 476.524C361.439 474.942 361.824 476.135 360.476 475.746C359.128 475.357 358.166 476.162 357.589 478.161C357.012 480.159 354.417 489.153 356.151 490.736C357.884 492.319 360.869 492.098 361.543 492.292C362.082 492.448 365.682 490.6 367.415 489.656C370.687 488.437 370.976 487.437 372.129 483.439Z" fill="black"/>
<path d="M373.023 461.31C372.964 459.974 373.812 459.618 372.756 458.654L371.524 458.298C371.25 458.219 370.492 457.869 369.647 457.097C368.59 456.133 368.825 456.86 368.004 456.623C367.183 456.386 366.596 456.876 366.245 458.094C365.894 459.312 365.189 462.535 366.245 463.5C367.301 464.464 366.915 465.58 368.589 465.58C369.629 465.58 371.176 465.672 372.231 465.098C374.225 464.355 372.321 463.746 373.023 461.31Z" fill="black"/>
<path d="M230.77 100.338C230.718 103.395 231.258 104.987 233.791 107.557L236.861 108.807C237.543 109.085 239.414 110.155 241.44 112.211C243.973 114.781 245.411 112.21 247.996 110.181C249.734 108.816 249.382 107.9 250.456 105.26C251.531 102.62 252.991 97.987 250.459 95.417C247.926 92.847 246.432 91.1624 245.408 90.7457C244.59 90.4123 240.919 94.4906 238.156 95.417C232.988 96.3888 232.92 95.0576 230.77 100.338Z" fill="black"/>
<path d="M279.768 197.542C280.37 198.071 280.932 198.636 281.788 198.58L282.453 198.195C282.601 198.109 282.816 197.587 283.5 197.542C284.356 197.486 284.196 197.625 284.639 197.369C285.083 197.112 285.114 196.655 284.733 195.998C284.353 195.34 284.356 193.752 283.5 193.808C282.645 193.865 280.461 193.085 279.767 193.808C279.335 194.258 279.41 194.982 279.22 195.677C278.713 196.848 279.006 196.227 279.768 197.542Z" fill="black"/>
<path d="M298.389 190.102C298.337 193.159 301.407 194.409 303.94 196.979L307.01 198.229C307.692 198.507 309.563 199.576 311.589 201.632C314.122 204.202 313.636 202.466 315.683 203.299C317.73 204.132 319.291 203.229 320.365 200.589C321.44 197.95 326.277 186.071 323.745 183.501C321.212 180.931 316.581 180.584 315.558 180.167C314.739 179.834 309.007 181.603 306.244 182.53C301.076 183.502 300.539 184.821 298.389 190.102Z" fill="black"/>
</svg>
